<?xml version="1.0" standalone="no"?>
<!DOCTYPE svg PUBLIC "-//W3C//DTD SVG 20010904//EN"
 "http://www.w3.org/TR/2001/REC-SVG-20010904/DTD/svg10.dtd">
<svg version="1.0" xmlns="http://www.w3.org/2000/svg"
 width="269.000000pt" height="269.000000pt" viewBox="0 0 269.000000 269.000000"
 preserveAspectRatio="xMidYMid meet">
<metadata>
Created by potrace 1.16, written by Peter Selinger 2001-2019
</metadata>
<g transform="translate(0.000000,269.000000) scale(0.100000,-0.100000)"
fill="#000000" stroke="none">
<path d="M673 2683 c373 -2 981 -2 1350 0 370 1 65 2 -678 2 -742 0 -1045 -1
-672 -2z"/>
<path d="M1565 2436 c-33 -8 -73 -20 -90 -27 l-30 -13 35 -3 c137 -13 244 -58
276 -119 22 -40 15 -55 -42 -97 -80 -58 -163 -82 -284 -82 -58 0 -127 3 -155
8 l-50 7 45 -24 c25 -14 74 -32 110 -41 36 -10 72 -19 80 -22 9 -2 -5 -15 -35
-33 -52 -29 -109 -80 -126 -113 -9 -16 -8 -17 8 -9 10 6 27 19 37 31 31 34
210 91 286 91 16 0 32 5 35 10 8 13 104 60 123 60 8 0 13 -9 11 -22 -1 -13 2
-31 6 -41 17 -40 -37 -192 -109 -306 -15 -24 -26 -45 -24 -47 10 -9 194 187
238 253 48 71 90 166 90 202 0 10 6 34 14 52 7 19 16 45 20 59 5 21 3 20 -9
-5 l-14 -30 -1 26 c0 23 29 65 30 43 1 -5 7 8 15 29 7 22 23 49 34 61 12 12
21 25 21 29 0 4 -24 7 -54 7 -43 0 -61 -5 -84 -25 l-29 -24 -39 40 c-21 21
-58 49 -81 60 -56 27 -176 34 -258 15z"/>
<path d="M755 2066 l-40 -13 45 -7 c117 -20 171 -77 115 -122 -47 -37 -127
-57 -211 -52 -41 3 -72 3 -70 0 3 -2 33 -14 67 -27 61 -22 62 -23 38 -35 -30
-16 -69 -51 -69 -62 0 -5 13 1 28 12 29 22 120 50 160 50 13 0 35 9 49 20 14
11 32 20 39 20 32 0 18 -97 -27 -179 -16 -30 -27 -56 -25 -58 2 -2 32 28 68
66 74 78 118 159 121 220 1 22 5 41 10 41 4 0 5 5 2 10 -3 6 -2 10 2 10 5 0
16 16 25 36 15 32 15 36 0 41 -8 4 -28 -1 -44 -10 -29 -17 -30 -16 -69 15 -35
28 -49 33 -107 35 -37 1 -85 -3 -107 -11z"/>
<path d="M1278 1493 c10 -4 7 -9 -10 -17 -19 -10 -25 -9 -35 3 -10 14 -17 9
-52 -30 -50 -57 -97 -81 -140 -73 -24 5 -38 2 -54 -12 -59 -51 -91 -67 -141
-69 -53 -3 -86 -12 -86 -25 0 -4 -27 -22 -60 -39 -32 -18 -62 -36 -66 -42 -4
-6 -15 -4 -30 5 -35 23 -77 20 -108 -9 -15 -14 -33 -25 -41 -25 -8 0 -17 -4
-20 -10 -3 -5 -21 -10 -39 -10 -20 0 -40 -8 -51 -20 l-19 -21 755 1 c681 1
751 3 725 17 -16 9 -40 13 -56 9 -19 -3 -36 1 -52 13 -13 10 -39 26 -59 35
-38 18 -89 76 -67 76 7 0 27 -9 43 -20 17 -11 40 -20 53 -20 12 0 22 -4 22
-10 0 -5 7 -10 16 -10 8 0 12 -4 9 -10 -3 -5 11 -17 32 -26 21 -9 57 -24 79
-34 46 -20 77 -22 483 -20 138 0 231 4 225 10 -21 20 -179 120 -190 120 -7 0
-45 16 -84 37 -60 30 -76 34 -91 25 -10 -7 -25 -12 -33 -12 -7 0 -20 -7 -27
-16 -22 -27 -97 -54 -149 -54 -45 0 -116 27 -155 60 -6 5 -16 6 -20 2 -5 -4
-6 -2 -2 3 11 21 -16 42 -124 96 -12 5 -25 -1 -45 -22 -17 -18 -36 -28 -46
-26 -9 3 -26 -2 -38 -10 -20 -14 -24 -13 -55 18 -78 80 -111 109 -121 109 -6
0 -23 14 -37 30 -15 17 -33 30 -40 29 -8 0 -8 -2 1 -6z m-43 -169 c13 -5 15
-15 9 -49 -5 -37 -3 -45 14 -54 32 -17 47 -14 31 5 -12 14 -11 16 6 12 11 -2
19 -9 18 -16 -2 -6 8 -19 21 -29 26 -21 32 -55 8 -45 -9 3 -13 1 -10 -4 3 -5
-20 -10 -53 -12 -50 -2 -60 1 -69 18 -9 17 -8 20 10 20 25 0 25 10 -1 55 -16
27 -24 33 -34 25 -10 -8 -16 -7 -24 7 -8 14 -4 23 17 44 30 30 34 32 57 23z"/>
<path d="M295 525 c-41 -22 -55 -43 -55 -82 0 -39 25 -67 80 -89 47 -19 54
-49 14 -64 -34 -13 -71 -3 -77 21 -8 30 -35 23 -42 -12 -10 -44 5 -53 83 -53
53 0 76 5 104 22 40 25 48 39 48 85 -1 43 -18 62 -74 87 -62 26 -61 54 2 58
37 3 42 1 42 -17 0 -32 27 -25 39 11 6 17 9 34 6 37 -4 3 -36 7 -73 9 -47 2
-76 -2 -97 -13z"/>
<path d="M510 530 c0 -6 5 -18 11 -28 16 -26 -24 -203 -51 -221 -11 -7 -20
-17 -20 -22 0 -5 58 -9 129 -9 125 0 129 1 135 23 3 12 6 28 6 35 0 17 -29 15
-36 -3 -4 -10 -20 -15 -51 -15 l-45 0 7 37 c4 21 9 41 11 45 9 14 52 8 58 -7
7 -20 24 -19 29 3 16 58 17 72 3 72 -7 0 -19 -6 -25 -14 -30 -36 -65 9 -41 53
15 29 70 29 77 1 11 -43 42 -12 43 43 0 15 -12 17 -120 17 -74 0 -120 -4 -120
-10z"/>
<path d="M790 530 c0 -6 5 -18 11 -28 16 -26 -24 -203 -51 -221 -11 -7 -20
-17 -20 -22 0 -5 58 -9 129 -9 125 0 129 1 135 23 3 12 6 28 6 35 0 17 -29 15
-36 -3 -4 -10 -20 -15 -51 -15 l-45 0 7 37 c9 49 12 53 41 53 15 0 24 -6 24
-15 0 -21 28 -19 33 3 16 58 17 72 3 72 -7 0 -19 -7 -26 -15 -7 -8 -21 -15
-31 -15 -21 0 -25 24 -9 64 8 21 16 26 45 26 28 0 35 -4 35 -20 0 -27 26 -25
34 3 15 57 16 57 -114 57 -74 0 -120 -4 -120 -10z"/>
<path d="M1190 526 c0 -8 5 -16 12 -18 19 -7 -31 -217 -54 -229 -33 -18 -19
-29 37 -29 53 0 73 14 39 27 -11 4 -13 14 -9 37 15 74 27 108 35 100 4 -5 23
-44 41 -87 l32 -78 41 3 c45 3 41 -6 81 181 11 52 21 77 31 77 8 0 14 7 14 15
0 11 -12 15 -48 15 -57 0 -68 -7 -46 -31 13 -15 14 -25 3 -78 -6 -34 -15 -61
-19 -61 -4 0 -24 38 -45 85 l-38 85 -53 0 c-40 0 -54 -4 -54 -14z"/>
<path d="M1510 527 c0 -7 5 -18 10 -23 17 -17 -28 -212 -51 -225 -42 -22 -15
-29 111 -29 97 0 130 3 130 13 0 6 3 22 6 35 5 16 2 22 -10 22 -9 0 -19 -7
-22 -15 -4 -10 -20 -15 -51 -15 l-45 0 6 31 c3 17 6 38 6 45 0 9 11 14 30 14
20 0 30 -5 30 -15 0 -26 28 -16 34 13 4 15 9 35 12 45 7 22 -14 22 -37 1 -36
-33 -64 9 -39 57 15 27 70 26 77 -1 11 -43 43 -5 43 51 0 5 -54 9 -120 9 -92
0 -120 -3 -120 -13z"/>
<path d="M1819 517 c-69 -47 -61 -114 18 -152 53 -26 65 -38 58 -57 -13 -34
-105 -31 -105 3 0 31 -27 22 -39 -13 -13 -37 -7 -43 54 -53 63 -9 125 9 158
45 51 57 29 119 -54 149 -32 12 -44 22 -44 36 0 16 8 21 42 23 35 3 42 0 48
-18 9 -27 27 -21 40 14 13 36 -4 46 -81 46 -47 0 -69 -5 -95 -23z"/>
<path d="M2027 533 c-3 -5 -8 -23 -12 -40 -5 -26 -3 -33 9 -33 8 0 20 9 26 20
15 27 40 26 40 -2 0 -13 -7 -52 -15 -88 -8 -36 -17 -75 -20 -86 -3 -12 -14
-24 -25 -27 -11 -3 -20 -10 -20 -16 0 -7 30 -11 85 -11 85 0 104 9 70 34 -22
16 21 209 48 214 12 3 20 -4 24 -17 11 -44 43 -7 43 50 0 11 -247 12 -253 2z"/>
<path d="M2329 517 c-38 -25 -53 -73 -35 -109 6 -13 34 -34 61 -48 59 -29 69
-55 29 -71 -36 -13 -75 -3 -81 21 -11 40 -43 17 -43 -30 0 -14 12 -22 42 -30
70 -19 165 10 187 56 28 62 0 115 -72 135 -34 9 -53 32 -41 50 3 5 23 9 46 9
31 0 41 -4 45 -20 10 -40 43 -17 43 30 0 23 -19 30 -89 30 -44 0 -66 -6 -92
-23z"/>
</g>
</svg>
